<svg width="14" height="13" viewBox="0 0 14 13" fill="none" xmlns="http://www.w3.org/2000/svg">
<path fill-rule="evenodd" clip-rule="evenodd" d="M8.0032 0.469701L7.98642 0.424083C7.89425 0.16625 7.7385 0 7.5285 0H3.675C3.465 0 3.31625 0.16625 3.21767 0.424083L0 9.16825C0 9.16825 1.89 8.2495 3.78583 8.2495L5.21558 3.83658C5.26925 3.62308 5.42558 3.47842 5.60175 3.47842C5.77792 3.47842 5.93425 3.62308 5.98792 3.83658L6.26444 4.69041L8.0032 0.469701ZM4.21579 9.66335C3.70824 9.53551 3.23804 9.31621 2.87175 8.87717C2.59643 9.78448 2.76839 11.0209 3.38762 11.6737L4.21579 9.66335Z" fill="#FF4444"/>
<path fill-rule="evenodd" clip-rule="evenodd" d="M5 9.77926L6.79881 12.7899C6.83696 12.8539 6.8916 12.9069 6.9573 12.9437C7.02299 12.9806 7.09743 13 7.1732 13C7.24897 13 7.32341 12.9806 7.38911 12.9437C7.4548 12.9069 7.50945 12.8539 7.54759 12.7899L13.6141 2.6363C13.6526 2.572 13.6729 2.49894 13.6732 2.4245C13.6735 2.35006 13.6536 2.27688 13.6156 2.21233C13.5776 2.14778 13.5229 2.09416 13.4569 2.05688C13.3909 2.0196 13.316 1.99998 13.2397 2H11.3184L7.1732 8.74541L6.12715 7.04318L5 9.77926Z" fill="#57EF78"/>
<path fill-rule="evenodd" clip-rule="evenodd" d="M6.52588 6.07527L7.17319 7L10.6732 2H8.20473L6.52588 6.07527Z" fill="#57EF78"/>
</svg>
